<?xml version="1.0" encoding="utf-8"?>
<!-- Generator: Adobe Illustrator 16.0.0, SVG Export Plug-In . SVG Version: 6.00 Build 0)  -->
<!DOCTYPE svg PUBLIC "-//W3C//DTD SVG 1.1//EN" "http://www.w3.org/Graphics/SVG/1.1/DTD/svg11.dtd">
<svg version="1.1" id="Layer_1" xmlns="http://www.w3.org/2000/svg" xmlns:xlink="http://www.w3.org/1999/xlink" x="0px" y="0px"
	 width="612px" height="792px" viewBox="0 0 612 792" enable-background="new 0 0 612 792" xml:space="preserve">
<path fill="#131111" stroke="#000000" d="M49.25,358.25H83.5c0,0,23-107.5,72-97.75s-31.5,95.5-43.25,193s56,116,67.5,119
	s77,19.25,132-28.75c0,0,31.25,34.867,106.25,33.809c69.026-0.975,105.441-83.215,111.778-103.131
	C530.327,472.704,564,374.75,569,319.75s-1.75-72.5-41-83.5s-69.25,53-45.75,73.5s45.75,45,34,89s-36.75,134.5-81,150.5
	S378.75,535,378,534.5s-12.75-7-11.25-50.25s35-148,35-148l12.5-60.75c0,0,10-25.5-32.25-34.75c0,0-38-6.25-47.75,60.25
	s-34.5,146.5-34.5,146.5s-6,36.75-1.75,52.25c0,0-18,49-58.75,51.75s-54-26-55.5-50.5s-0.25-44.5,7.5-70.75s40.5-111.75,40.5-111.75
	s15.25-48-29.75-72.25s-109.5,3-135,52.5S49.25,359.5,49.25,359.5"/>
</svg>
